<?xml version="1.0" standalone="no"?>
<!DOCTYPE svg PUBLIC "-//W3C//DTD SVG 20010904//EN"
 "http://www.w3.org/TR/2001/REC-SVG-20010904/DTD/svg10.dtd">
<svg version="1.0" xmlns="http://www.w3.org/2000/svg"
 width="2560.000000pt" height="2560.000000pt" viewBox="0 0 2560.000000 2560.000000"
 preserveAspectRatio="xMidYMid meet">
<metadata>
Created by potrace 1.14, written by Peter Selinger 2001-2017
</metadata>
<g transform="translate(0.000000,2560.000000) scale(0.100000,-0.100000)"
fill="#000000" stroke="none">
<path d="M6836 21243 c-114 -138 -327 -348 -444 -438 -78 -60 -96 -79 -123
-133 -32 -67 -78 -232 -103 -376 -8 -48 -18 -91 -21 -96 -3 -5 -42 17 -86 50
-103 76 -227 137 -304 149 -65 10 -164 -9 -450 -84 -636 -166 -1083 -478
-1400 -976 -104 -162 -252 -474 -389 -819 -68 -173 -147 -368 -175 -432 -125
-292 -291 -574 -440 -745 -39 -46 -69 -83 -65 -83 23 0 245 126 323 185 214
160 357 331 536 645 132 230 323 504 494 707 34 40 61 76 61 79 0 4 -56 4
-124 0 -79 -5 -126 -4 -130 3 -9 13 101 157 202 262 303 319 683 504 1127 549
123 13 261 10 258 -5 -1 -5 -53 -20 -114 -33 -342 -71 -619 -210 -814 -407
-154 -156 -261 -322 -477 -739 -327 -631 -410 -780 -520 -926 -82 -110 -258
-292 -372 -384 -352 -285 -812 -472 -1314 -534 l-134 -17 64 -52 c87 -70 190
-179 404 -428 261 -302 299 -336 409 -356 101 -19 237 25 332 106 23 19 44 31
48 26 3 -6 -10 -59 -30 -118 -42 -127 -71 -283 -62 -333 4 -19 34 -73 68 -120
166 -232 302 -446 428 -677 60 -110 77 -133 104 -144 19 -7 93 -13 177 -15
115 -2 144 -5 142 -16 -2 -7 -20 -56 -42 -108 -47 -118 -76 -210 -84 -275 -6
-46 -2 -64 55 -205 53 -133 216 -611 260 -765 10 -34 23 -54 39 -63 34 -18
156 -9 294 23 60 13 112 22 117 19 4 -2 -5 -27 -22 -55 -121 -205 -259 -507
-260 -571 -1 -18 13 -109 30 -203 76 -410 131 -931 131 -1248 l0 -88 90 77
c253 216 564 568 605 683 38 108 56 268 64 566 l6 230 115 5 c130 6 199 31
225 79 17 34 69 289 90 441 20 149 45 437 45 519 0 63 -1 65 -43 105 -39 38
-160 105 -282 156 l-49 21 161 162 c251 253 284 299 329 455 121 416 437 696
967 856 240 73 434 106 757 131 244 19 395 38 508 65 183 44 379 139 547 265
74 56 275 232 275 241 0 2 -13 -2 -28 -10 -55 -28 -268 -98 -387 -126 -412
-98 -898 -105 -1330 -20 -228 45 -294 79 -135 70 251 -15 703 3 775 30 12 5
43 37 68 72 25 35 52 69 59 76 11 9 47 0 168 -43 84 -30 154 -55 156 -55 2 0
5 42 6 93 l3 92 30 3 c173 14 425 64 578 113 177 58 402 166 456 220 30 30
173 236 297 429 47 74 90 139 94 143 4 4 125 -189 268 -430 l262 -439 -158
-159 c-701 -711 -1277 -1555 -1813 -2658 -48 -98 -89 -180 -91 -182 -2 -2
-246 -36 -542 -74 -296 -39 -540 -71 -542 -73 -1 -2 28 -195 66 -428 38 -234
70 -435 70 -448 0 -16 -12 -29 -42 -47 -203 -118 -451 -270 -587 -359 -893
-584 -1687 -1276 -2270 -1980 -155 -186 -461 -609 -450 -620 2 -3 157 31 344
75 698 162 1077 228 1500 259 179 13 584 13 751 0 1169 -90 2211 -566 3269
-1491 182 -159 615 -593 847 -849 991 -1091 2063 -1841 3238 -2265 454 -163
926 -270 1430 -322 206 -21 733 -24 925 -5 1000 99 1850 456 2442 1025 92 89
103 96 112 79 6 -11 119 -321 252 -688 132 -368 244 -672 248 -676 4 -4 307
240 674 542 606 498 671 549 710 554 23 3 528 26 1122 51 594 25 1101 49 1127
53 l47 7 -1636 780 c-899 429 -1637 783 -1640 788 -2 4 9 42 25 85 17 42 41
124 55 182 113 466 71 889 -108 1088 -60 66 -163 120 -267 138 -44 8 -83 16
-88 19 -4 2 -8 25 -8 49 -3 156 -133 258 -366 290 l-91 12 3 61 c14 249 -231
479 -465 436 -32 -6 -62 -8 -66 -3 -4 4 -12 37 -17 73 -41 284 -220 398 -536
343 -258 -46 -525 -139 -728 -253 -43 -25 -82 -41 -86 -36 -4 4 -128 143 -275
308 -236 266 -270 300 -293 297 -15 -2 -75 -6 -133 -8 -167 -9 -293 33 -390
129 -56 55 -108 145 -87 151 7 3 76 7 153 10 235 9 408 67 529 177 167 152
224 498 145 882 -15 76 -17 102 -8 113 6 8 16 14 22 14 22 0 203 93 262 135
184 131 290 339 284 558 l-2 78 98 34 c192 66 309 178 360 345 11 37 20 117
25 245 18 385 97 680 285 1055 40 80 85 183 99 229 69 217 45 454 -63 643
l-39 67 27 24 c20 18 342 277 396 318 6 4 258 -33 560 -82 303 -49 554 -89
558 -89 12 0 -102 162 -196 280 -491 608 -1312 1219 -2202 1637 -1159 545
-2374 766 -3505 637 -631 -72 -1244 -255 -1824 -545 -110 -55 -203 -96 -207
-92 -47 49 -946 1230 -941 1235 4 4 124 33 267 63 143 31 267 58 277 61 13 4
-21 80 -189 422 l-206 417 42 388 c24 214 41 390 39 392 -4 3 -589 25 -680 25
l-68 0 -50 -99 c-27 -55 -53 -102 -57 -104 -4 -3 -60 5 -124 17 l-115 21 -635
658 c-532 553 -635 655 -638 635 -2 -13 2 -212 9 -443 l12 -420 -49 -43 c-92
-83 -231 -134 -398 -148 l-80 -6 0 -162 c0 -135 -4 -174 -22 -241 -40 -147
-116 -286 -201 -368 -50 -49 -60 -35 -32 40 31 83 67 232 87 363 22 146 25
492 4 593 l-13 68 -32 -7 c-17 -4 -67 -6 -111 -6 -145 1 -272 59 -382 173
-129 135 -192 300 -211 552 l-7 99 -89 -109z m2274 -1038 c205 -247 373 -451
374 -452 2 -3 472 -83 488 -83 11 0 36 45 80 145 57 131 65 145 88 145 39 0
334 -31 339 -36 6 -6 -66 -495 -74 -502 -7 -8 -1008 67 -1016 75 -7 8 -649
1125 -671 1168 -9 18 -9 18 4 5 8 -8 183 -217 388 -465z m-2118 -833 c59 -29
145 -114 169 -166 46 -102 9 -206 -72 -206 -78 0 -149 62 -149 130 0 67 -62
97 -95 46 -23 -34 -11 -69 79 -236 98 -183 151 -302 182 -411 23 -78 26 -104
22 -187 -6 -119 -29 -182 -101 -278 -61 -80 -152 -153 -234 -185 -49 -20 -76
-23 -173 -23 -132 1 -182 14 -412 110 -86 36 -153 58 -190 61 -54 5 -58 4 -86
-26 -27 -30 -29 -31 -44 -14 -30 34 -48 82 -48 126 0 39 5 49 34 75 19 16 40
32 48 35 25 10 -15 28 -52 23 -90 -12 -85 -14 -88 24 -6 80 72 139 183 140 72
0 118 -12 208 -52 37 -17 69 -29 71 -27 2 2 70 133 150 291 146 285 147 287
140 337 -8 59 5 81 44 81 35 0 86 -42 119 -98 23 -39 28 -59 28 -112 -1 -60
-10 -86 -114 -335 -62 -148 -115 -275 -117 -282 -13 -29 193 -55 262 -33 111
36 184 137 184 254 0 110 -38 225 -161 486 -105 225 -116 293 -61 383 61 97
162 123 274 69z m3706 -1797 l250 -329 -70 -18 c-129 -33 -242 -112 -348 -245
-36 -45 -66 -78 -67 -75 -3 10 -43 913 -43 975 0 45 2 49 14 37 8 -8 127 -163
264 -345z m-4573 306 c51 -23 130 -108 156 -167 22 -49 19 -113 -5 -133 -21
-18 -320 -81 -330 -71 -8 8 62 250 105 368 10 27 22 27 74 3z m2163 -258 c-5
-106 -32 -173 -102 -250 -140 -155 -394 -252 -856 -328 -466 -75 -1037 -115
-1673 -115 l-348 0 -59 56 c-69 66 -99 120 -102 189 l-3 50 360 6 c550 10
1003 35 1370 76 l160 18 -260 3 c-142 1 -263 6 -268 11 -6 6 -1 22 12 40 l22
31 -98 -46 c-90 -42 -103 -45 -154 -40 -31 3 -71 1 -90 -5 -40 -13 -171 -21
-361 -23 l-137 -1 -30 29 c-18 17 -27 34 -22 39 4 4 105 19 222 33 315 36 346
41 1160 191 l86 16 69 -47 69 -46 21 48 c25 57 98 124 152 140 73 22 165 15
311 -25 118 -32 151 -37 251 -37 130 -1 193 15 251 63 19 16 38 26 43 21 5 -5
7 -48 4 -97z m-3412 -28 l35 -15 -25 -33 c-17 -23 -26 -47 -26 -71 l0 -38 35
31 c45 39 74 46 117 28 43 -18 108 -74 108 -94 0 -8 -14 -19 -31 -25 -60 -21
-70 -88 -44 -303 36 -302 2 -459 -131 -590 -104 -103 -234 -158 -379 -158
-184 -1 -334 86 -610 353 -66 64 -135 128 -153 143 -51 41 -122 35 -122 -10 0
-37 18 -63 44 -63 32 0 93 -69 102 -115 7 -42 -9 -89 -40 -110 -53 -38 -164
-4 -218 67 -53 69 -71 119 -75 203 -3 69 -1 85 19 120 33 55 92 94 156 102 77
9 148 -30 302 -168 152 -136 273 -228 359 -271 59 -30 73 -33 156 -33 73 0 98
4 130 22 90 48 134 129 143 261 l5 84 -29 -6 c-16 -3 -153 -17 -304 -32 -304
-29 -341 -27 -412 23 -46 31 -98 107 -98 141 0 31 26 62 53 62 10 0 31 -9 47
-20 l27 -19 324 56 c178 31 327 59 332 63 4 3 2 49 -4 101 -19 151 16 256 104
309 38 24 56 25 103 5z m737 -811 c4 -4 -26 -43 -66 -87 -66 -74 -70 -80 -42
-72 44 11 60 11 59 0 -1 -5 -38 -124 -83 -264 -45 -139 -81 -255 -78 -257 5
-5 132 294 208 491 34 88 67 166 73 174 9 11 39 13 166 7 85 -3 157 -10 161
-14 4 -4 -33 -110 -81 -237 -407 -1071 -737 -1531 -1079 -1502 -60 5 -143 29
-164 47 -5 4 14 23 40 42 98 70 150 220 159 458 7 184 26 257 86 325 49 56
105 84 166 85 23 0 42 4 42 8 0 5 -11 41 -25 81 l-24 73 83 156 c46 87 122
232 170 325 l87 167 68 0 c37 0 71 -3 74 -6z m9227 -59 c236 -36 450 -97 623
-178 l89 -41 -99 -22 c-190 -42 -392 -113 -555 -195 -42 -21 -110 -48 -150
-59 -82 -23 -417 -89 -583 -116 -60 -9 -112 -18 -114 -20 -1 -1 13 -29 33 -61
62 -101 83 -201 55 -256 -6 -12 -55 -67 -109 -122 -297 -306 -537 -708 -675
-1130 -43 -131 -61 -194 -52 -185 3 3 45 66 95 140 424 634 1076 1162 1842
1490 278 120 710 249 990 297 81 14 127 17 200 11 309 -24 612 -107 805 -220
78 -45 192 -127 217 -155 16 -17 13 -18 -75 -20 -116 -2 -298 -38 -493 -99
-309 -96 -258 -88 -564 -88 -151 0 -291 3 -310 7 l-35 6 -28 -88 c-33 -103
-82 -204 -125 -258 -20 -25 -70 -61 -144 -103 -149 -84 -374 -223 -523 -324
-70 -47 -165 -100 -230 -128 -98 -43 -406 -149 -510 -177 l-40 -11 -100 -207
c-117 -243 -228 -434 -311 -533 -142 -172 -244 -307 -361 -483 -79 -118 -144
-204 -175 -231 -62 -54 -186 -128 -306 -182 -51 -23 -96 -45 -99 -47 -3 -3 4
-50 16 -104 35 -163 51 -283 51 -379 0 -79 -5 -104 -34 -186 -81 -222 -116
-380 -136 -598 -31 -338 -130 -564 -282 -641 -24 -12 -44 -23 -46 -24 -1 -1
17 -36 42 -77 72 -123 172 -317 210 -409 29 -71 40 -120 61 -270 49 -342 131
-700 234 -1019 27 -85 48 -157 45 -160 -11 -10 -269 265 -362 385 -317 409
-579 898 -742 1385 -148 443 -230 1022 -169 1203 47 142 187 368 381 613 6 8
-23 33 -90 77 -116 77 -182 144 -182 184 0 35 81 271 136 397 24 55 43 100 41
101 -1 1 -126 -31 -277 -71 -151 -41 -280 -74 -287 -74 -6 0 -60 58 -120 129
-59 71 -111 129 -114 128 -4 -1 -80 -90 -169 -197 -89 -107 -167 -201 -174
-208 -7 -7 -80 -31 -162 -53 -82 -22 -152 -43 -157 -48 -4 -4 -111 -257 -238
-562 -127 -305 -235 -558 -240 -563 -9 -10 -178 63 -186 80 -2 7 66 263 151
570 86 307 154 559 152 561 -2 2 -149 -206 -327 -464 -178 -257 -331 -475
-339 -484 -14 -17 -20 -15 -99 22 l-83 39 18 27 c35 54 132 230 274 498 385
727 732 1304 844 1402 94 83 383 269 711 458 94 54 172 99 174 101 1 1 -27 31
-64 65 -107 100 -147 186 -124 266 28 102 603 666 939 922 196 149 400 280
600 382 l85 44 293 -1 292 -1 0 62 c0 114 37 175 124 200 125 38 344 75 581
99 87 9 464 -4 565 -19z m-2642 -172 c-99 -99 -213 -202 -256 -231 -42 -29
-153 -91 -247 -139 -187 -94 -175 -81 -194 -203 -24 -154 -39 -184 -178 -336
-69 -77 -205 -229 -301 -339 -97 -110 -189 -210 -206 -222 -44 -34 -162 -80
-297 -117 l-121 -33 -29 -109 c-38 -148 -102 -332 -149 -430 -51 -105 -337
-465 -402 -506 -54 -34 -188 -99 -250 -123 l-48 -18 0 -56 c0 -64 -13 -157
-29 -218 -7 -25 -42 -82 -86 -140 -41 -54 -158 -208 -260 -342 -102 -134 -185
-239 -185 -235 0 19 83 282 126 402 135 372 412 931 502 1011 48 43 173 132
290 205 50 32 92 62 92 66 0 4 -9 33 -20 65 -21 61 -27 166 -11 207 13 34 205
281 361 464 164 194 546 578 730 736 344 295 737 561 1020 691 89 41 303 127
316 127 6 0 -69 -80 -168 -177z m4943 -1583 c83 -16 158 -57 224 -124 108
-109 149 -219 148 -396 -2 -204 -87 -443 -261 -728 -38 -63 -38 -65 -29 -125
21 -147 -15 -353 -89 -505 -102 -210 -296 -327 -486 -293 -106 18 -182 63
-283 165 -107 108 -173 213 -222 353 -33 96 -34 100 -27 213 3 63 3 112 -1
108 -4 -3 -46 -53 -95 -109 l-87 -103 -99 -1 c-90 0 -105 -3 -167 -32 -331
-157 -358 -581 -54 -870 128 -122 246 -173 395 -173 132 0 225 33 327 115 39
32 42 32 78 20 130 -45 188 -157 141 -274 -14 -35 -21 -41 -82 -61 -245 -82
-449 -233 -523 -386 -57 -119 -44 -250 33 -321 45 -42 107 -63 190 -63 76 0
78 -1 85 -27 4 -16 7 -86 7 -158 -1 -184 -36 -265 -129 -300 -74 -29 -149 -17
-295 45 -155 66 -202 72 -264 36 -27 -15 -58 -46 -77 -76 -18 -28 -33 -50 -34
-50 -1 0 -21 7 -46 14 -24 8 -83 27 -131 41 l-86 26 43 129 c43 129 43 130 22
134 -12 3 -226 18 -476 35 -249 17 -456 32 -458 34 -2 3 0 31 6 63 36 225 179
344 415 344 67 0 223 -24 293 -45 24 -7 43 -10 43 -6 0 11 -51 83 -89 126
-250 284 -682 333 -1056 120 -43 -25 -82 -45 -86 -45 -10 0 -37 72 -54 144
-30 125 -8 274 57 399 45 86 154 193 245 240 181 94 437 111 693 48 55 -14 77
-16 83 -8 37 57 59 276 38 377 -27 130 -105 235 -215 289 -35 17 -71 31 -80
31 -29 0 -29 29 -1 138 68 265 187 478 352 633 89 84 144 121 246 169 132 62
192 74 352 74 122 -1 151 -4 228 -28 48 -14 113 -39 144 -55 l57 -28 20 41
c56 111 228 100 338 -23 51 -56 75 -116 85 -205 6 -53 8 -57 20 -40 7 10 25
55 40 99 23 70 26 97 27 215 0 91 -5 156 -16 198 l-16 63 51 77 c148 228 372
343 588 302z m-2851 -3316 c0 -4 -32 -54 -71 -111 -89 -131 -167 -287 -214
-425 -38 -115 -71 -291 -62 -329 10 -39 78 -144 134 -208 178 -201 545 -410
998 -567 149 -52 150 -52 147 -81 -10 -93 -66 -181 -144 -222 l-43 -23 3 -94
c6 -181 -57 -289 -209 -359 -31 -14 -76 -27 -100 -30 l-44 -6 -47 83 c-132
233 -292 372 -678 588 -209 117 -297 177 -386 265 -80 80 -109 134 -125 234
-32 210 89 583 318 976 124 215 121 211 193 244 66 30 151 57 205 64 52 7 125
7 125 1z m-5535 -234 c88 -11 162 -24 166 -28 3 -4 19 -59 34 -122 14 -63 29
-121 31 -129 3 -10 41 21 112 91 l107 107 150 -44 c182 -53 356 -113 371 -129
20 -19 117 -307 108 -316 -5 -5 -100 -57 -211 -115 -112 -59 -203 -108 -203
-110 0 -1 40 6 89 16 160 33 300 42 545 36 161 -4 274 -12 371 -27 168 -25
403 -76 465 -99 71 -27 354 -236 566 -418 142 -121 199 -178 169 -170 -11 3
-77 21 -147 40 -472 132 -914 187 -1506 187 -382 0 -765 -28 -1022 -74 -82
-14 -81 -16 35 -41 110 -24 276 -77 425 -138 706 -284 1533 -848 2430 -1657
290 -261 563 -488 847 -703 176 -132 183 -139 213 -202 29 -62 70 -199 70
-237 0 -16 9 -18 85 -18 103 0 275 -18 330 -35 22 -6 103 -49 180 -94 77 -45
246 -134 375 -198 129 -63 242 -118 250 -122 24 -12 60 -72 73 -119 l11 -42
76 7 c159 15 227 10 365 -30 170 -48 310 -75 470 -90 l130 -13 -111 -27 c-276
-67 -549 -99 -839 -99 -287 1 -663 51 -775 104 -25 12 -82 60 -130 109 l-85
87 -165 5 c-105 3 -187 11 -225 22 -136 37 -532 269 -825 484 -166 121 -412
325 -435 359 -29 44 -67 151 -90 256 l-17 76 -41 10 c-90 23 -236 74 -307 108
-83 39 -84 40 -401 379 -260 278 -490 492 -709 661 -164 126 -205 178 -297
368 l-55 114 -36 0 c-58 0 -308 39 -397 61 -44 11 -151 54 -238 95 -633 300
-1292 469 -1912 491 l-179 6 66 61 c82 77 195 144 260 156 64 12 221 12 357 0
58 -5 106 -8 108 -6 2 2 -5 31 -17 65 -36 108 -31 115 91 147 93 23 362 77
449 89 89 12 105 17 88 26 -32 18 -310 91 -433 114 -432 79 -894 79 -1365 -1
-122 -21 -205 -39 -450 -100 l-25 -6 21 19 c268 236 601 450 897 578 129 56
347 132 444 154 l51 13 123 -96 c67 -53 126 -93 129 -89 4 5 28 63 54 130 l47
121 87 7 c48 3 98 8 112 10 70 10 468 -6 615 -25z m7653 -1789 l201 -229 -155
-92 c-85 -50 -159 -90 -164 -88 -11 4 -440 575 -440 585 0 5 48 9 108 10 75 1
125 8 167 21 33 11 65 20 71 21 6 1 102 -102 212 -228z m1335 -107 c69 -23
132 -89 152 -158 15 -51 15 -81 -1 -137 -4 -14 12 -17 123 -21 255 -11 401
-91 463 -257 11 -28 20 -71 20 -96 0 -44 0 -45 34 -45 19 0 64 -9 101 -21 57
-17 78 -31 130 -82 74 -73 104 -141 112 -255 l6 -73 46 8 c67 12 170 9 214 -6
50 -17 93 -54 120 -105 21 -39 22 -52 20 -236 -2 -232 -26 -717 -36 -726 -8
-9 -268 -32 -271 -24 -3 5 7 170 19 323 l6 78 -97 -101 c-159 -165 -294 -242
-429 -244 -92 -1 -141 23 -172 84 -42 82 -24 205 48 340 67 123 145 209 288
317 3 2 -7 15 -21 30 l-26 26 -169 -101 c-92 -55 -217 -132 -277 -171 -97 -63
-114 -71 -158 -71 -154 0 -300 197 -248 335 5 14 65 88 133 163 67 75 156 175
197 220 l74 84 -40 -17 c-49 -20 -380 -192 -497 -257 -74 -42 -96 -50 -141
-50 -74 -1 -150 29 -207 80 -56 50 -76 98 -60 143 5 16 107 137 226 269 118
131 215 240 215 243 0 2 -25 7 -55 11 -50 6 -63 2 -147 -35 -176 -79 -333
-176 -433 -270 -49 -45 -51 -46 -149 -58 -55 -6 -101 -13 -103 -14 -6 -7 -42
-320 -53 -457 -6 -80 -12 -145 -13 -146 -1 -1 -61 -4 -133 -8 l-131 -7 -7 41
c-8 52 10 334 29 442 34 196 86 310 185 408 215 212 707 527 940 601 69 23
114 23 173 3z m-404 -1703 c109 -7 115 -8 138 -36 22 -25 25 -36 21 -90 -5
-80 -61 -201 -112 -240 -45 -34 -159 -71 -284 -91 -53 -8 -98 -16 -99 -18 -1
-1 337 -211 752 -466 547 -337 750 -467 737 -472 -9 -4 -181 -44 -382 -88
-201 -45 -366 -82 -367 -84 -1 -1 20 -71 47 -156 27 -85 46 -158 42 -161 -11
-11 -1081 -223 -1088 -216 -3 3 12 93 34 199 22 106 39 195 36 197 -2 2 -225
-59 -496 -137 -271 -78 -494 -140 -496 -138 -3 3 568 636 652 723 l21 22 353
-88 c193 -49 352 -87 352 -86 0 1 -199 157 -442 346 -245 190 -479 379 -523
424 -182 183 -225 388 -108 524 60 71 177 110 383 130 108 11 679 12 829 2z
m2956 -1388 c550 -284 1004 -519 1008 -523 5 -4 -92 -27 -215 -50 -123 -23
-239 -46 -258 -50 -38 -8 20 -36 -794 381 l-300 153 24 -40 c13 -21 46 -74 73
-117 30 -50 46 -85 42 -95 -12 -33 -418 -732 -422 -728 -3 2 0 131 6 286 6
156 11 301 11 324 0 39 -15 60 -310 421 l-310 379 33 34 c65 68 174 126 267
142 107 19 76 33 1145 -517z"/>
<path d="M7053 17333 c9 -2 25 -2 35 0 9 3 1 5 -18 5 -19 0 -27 -2 -17 -5z"/>
<path d="M4595 17094 c-27 -8 -97 -19 -154 -24 -118 -11 -263 -32 -257 -37 3
-3 273 11 411 23 65 5 70 7 71 30 2 27 -2 28 -71 8z"/>
</g>
</svg>
