<?xml version="1.0" encoding="UTF-8" standalone="no"?>
<svg xmlns="http://www.w3.org/2000/svg" version="1.1" viewBox="0 400 1080 260">
  <g transform="matrix(1.3745157,0,0,1.3745157,-757.54992,-99.097105)" fill="#000000">
    <path d="m 1135.4574,529.26694 c 1.9014,-4.90939 5.7302,-19.33702 6.2409,-23.5169 l 0.5803,-4.75 h 37.8049 c 37.7712,0 37.8073,-0.002 40.4226,-2.25156 3.3239,-2.85914 4.5289,-9.64461 2.0744,-11.68167 -1.2602,-1.04587 -7.4263,-1.38938 -27.3537,-1.52389 -32.6793,-0.22057 -38.0534,-1.55177 -43.1947,-10.69961 -3.6505,-6.49516 -3.2296,-13.39241 1.8822,-30.84327 2.3361,-7.975 5.2666,-18.1 6.5123,-22.5 l 2.2647,-8 38.0802,-0.26181 c 20.9441,-0.144 55.551,-0.144 76.9043,0 L 1316.5,413.5 l -9.5,5.4445 c -5.225,2.99448 -16.6286,9.63198 -25.3413,14.75 L 1265.8174,443 h -30.4583 c -25.5372,0 -30.9421,0.2501 -33.4517,1.5479 -4.6042,2.38093 -6.4088,8.80781 -3.336,11.88067 1.3416,1.34158 5.1081,1.57228 25.75,1.57722 32.7592,0.008 40.3305,1.47908 45.3111,8.8047 4.0771,5.99674 3.9127,10.38464 -1.1003,29.37457 -5.0023,18.9489 -7.1545,23.19732 -14.2933,28.21466 -8.6707,6.09397 -12.2933,6.43941 -68.6024,6.54169 -48.2394,0.0876 -50.8281,10e-4 -50.1791,-1.67451 z" />
    <path d="m 574.24336,542.75 c 1.60602,-6.1875 5.50409,-21.5571 8.66237,-34.15466 l 5.74233,-22.90466 271.90733,0.21935 c 149.54901,0.12064 272.00241,0.31442 272.11861,0.43063 0.1162,0.11621 -2.1488,10.0996 -5.0334,22.18531 l -5.2446,21.97403 -26.448,0.20323 -26.448,0.20322 -9.5,-19.42773 -9.5,-19.42773 -11.512,-0.0255 -11.5121,-0.0255 -4.9879,19.49982 -4.988,19.49982 -26.31739,1.8e-4 c -24.59626,1.7e-4 -26.28327,-0.11427 -25.7958,-1.74982 0.28687,-0.9625 2.34845,-8.95 4.58128,-17.75 2.23283,-8.8 4.30877,-16.7875 4.61319,-17.75 0.5093,-1.61027 -0.57578,-1.75 -13.58933,-1.75 h -14.14282 l -9.43716,19.5 -9.43716,19.5 H 901.9874 876 v -19.53078 -19.53078 l -12.07691,0.28078 -12.07691,0.28078 -10.67309,19.24905 -10.67309,19.24906 -26.36129,9.4e-4 -26.36129,9.5e-4 0.55538,-3.25 c 0.30545,-1.7875 0.8631,-10.5625 1.2392,-19.5 L 780.25583,492 h -66.89747 -66.89747 l -3.86499,15.75 c -5.19681,21.17723 -4.39403,19.66648 -11.25272,21.17634 -12.78955,2.81546 -25.45369,7.6747 -42.14219,16.16998 C 579.58106,549.99334 571.62316,554 571.51676,554 c -0.10639,0 1.12057,-5.0625 2.7266,-11.25 z M 647.75,375.92383 c -26.10786,-0.0106 -46.75,0.1451 -46.75,0.52929 0,0.24958 2.46608,3.73708 5.48047,7.75 3.01439,4.01294 5.4894,7.80837 5.5,8.4336 C 611.99108,393.26196 607.275,412.32546 601.5,435 595.725,457.67454 591,476.40054 591,476.61328 591,476.82601 624.66237,477 665.80469,477 h 74.80469 l 4.44531,-2.86914 C 750.14232,470.84651 754.76327,466.06523 757.74805,461 761.10658,455.3005 773,407.37237 773,399.53711 773,386.77403 766.66806,379.45649 753.56641,377.07812 749.95782,376.42305 691.2631,375.94154 647.75,375.92383 Z M 666.43555,412 h 20.55859 c 27.72026,0 27.17722,-0.44385 22.42774,18.31836 -2.76553,10.92484 -4.11952,13.1951 -9.14063,15.32031 -2.34828,0.99392 -8.52637,1.36133 -22.86523,1.36133 -18.21922,0 -19.61588,-0.12732 -19.19532,-1.75 0.24946,-0.9625 2.19977,-8.8375 4.33399,-17.5 z m 114.97646,50.26155 c 0.31845,-8.11885 0.81528,-20.83655 1.10407,-28.26155 0.2888,-7.425 1.00469,-20.52924 1.59087,-29.12053 1.03674,-15.19464 1.00574,-15.73993 -1.13709,-20 -1.21158,-2.40871 -2.8952,-5.16697 -3.74136,-6.12947 -1.46066,-1.66149 -0.16167,-1.75 25.68223,-1.75 h 27.2207 l -0.56213,6.75 c -0.58115,6.97849 -2.0364,28.2829 -3.12506,45.75 -0.34279,5.5 -0.97587,14.95 -1.40683,21 -0.43097,6.05 -0.66276,11.14043 -0.5151,11.31206 0.35078,0.40772 8.11067,-12.57062 18.72184,-31.31206 22.31047,-39.40476 25.61173,-45.2891 27.63044,-49.25 l 2.16606,-4.25 h 19.96905 19.96905 l 0.26063,43.25 0.26062,43.25 10.31432,-21 c 5.67288,-11.55 15.08314,-31.0167 20.91169,-43.25933 l 10.59737,-22.25933 49.06732,0.25933 49.0674,0.25933 6.652,14.58802 c 9.7472,21.37587 25.8374,54.29901 26.3045,53.82332 0.2221,-0.22624 3.8453,-13.46134 8.0515,-29.41134 4.2061,-15.95 8.3289,-31.3625 9.1617,-34.25 l 1.5141,-5.25 h 30.6099 30.61 l -7.2583,6.75 -7.2582,6.75 -5.3172,21.5 c -2.9244,11.825 -7.6887,31.2875 -10.5874,43.25 l -5.2703,21.75 h -44.8226 -44.8227 l -3.5251,-7 c -1.9388,-3.85 -3.7007,-7 -3.9152,-7 -0.2145,0 -1.3468,3.15 -2.5162,7 l -2.1262,7 h -25.9902 -25.9903 l 0.62376,-2.75 c 1.14426,-5.04473 13.21393,-52.5624 16.87856,-66.45004 3.07322,-11.64642 3.42322,-14.00733 2.33491,-15.75 -0.70412,-1.12748 -1.50948,-2.0263 -1.78968,-1.99738 -0.2802,0.0289 -3.76677,6.89141 -7.74794,15.25 -3.98117,8.35858 -13.43117,27.89529 -21,43.41491 L 954.5,476.93499 915.25,476.96749 876,477 l -0.009,-14.75 -0.009,-14.75 -7.90253,14.5 -7.90252,14.5 -39.6723,0.26155 -39.67231,0.26155 z" />
  </g>
</svg>
